<svg width="10" height="6" viewBox="0 0 10 6" fill="none" xmlns="http://www.w3.org/2000/svg">
<path d="M9.16658 0.637591C9.01045 0.482382 8.79924 0.395264 8.57908 0.395264C8.35893 0.395264 8.14772 0.482382 7.99158 0.637591L4.99992 3.58759L2.04992 0.637591C1.89378 0.482382 1.68257 0.395264 1.46242 0.395264C1.24226 0.395264 1.03105 0.482382 0.874917 0.637591C0.79681 0.71506 0.734814 0.807227 0.692507 0.908777C0.6502 1.01033 0.628418 1.11925 0.628418 1.22926C0.628418 1.33927 0.6502 1.44819 0.692507 1.54974C0.734814 1.65129 0.79681 1.74345 0.874917 1.82092L4.40825 5.35426C4.48572 5.43236 4.57789 5.49436 4.67944 5.53667C4.78099 5.57897 4.88991 5.60076 4.99992 5.60076C5.10993 5.60076 5.21885 5.57897 5.3204 5.53667C5.42195 5.49436 5.51411 5.43236 5.59158 5.35426L9.16658 1.82092C9.24469 1.74345 9.30669 1.65129 9.34899 1.54974C9.3913 1.44819 9.41308 1.33927 9.41308 1.22926C9.41308 1.11925 9.3913 1.01033 9.34899 0.908777C9.30669 0.807227 9.24469 0.71506 9.16658 0.637591Z" fill="#252525"/>
</svg>
