<svg width="115" height="45" viewBox="0 0 115 45" fill="none" xmlns="http://www.w3.org/2000/svg">
<path d="M12.2139 9.20776H6.10936C5.54281 9.20776 5.08958 9.66317 5.08958 10.2324C5.08958 18.0171 0.288076 24.8055 0.245585 24.8766C0.0756205 25.0901 -0.0235254 25.3036 0.00480198 25.574C0.0472931 25.8444 0.217258 26.1717 0.443877 26.3425C5.40118 30.0284 11.3783 44.1603 11.4349 44.3026C11.5907 44.6869 11.8173 45 12.2139 45C12.2847 45 12.4972 44.9146 12.568 44.9004C13.0354 44.8007 13.2337 44.4592 13.2337 43.9753V24.5493C13.2337 24.1508 13.1629 23.852 12.8088 23.667C11.7607 23.1404 11.1092 22.1015 11.1092 20.9345C11.1092 19.7675 11.7607 18.7144 12.8088 18.2021C13.1629 18.0313 13.2337 17.7894 13.2337 17.3909V10.2324C13.2337 9.66317 12.7663 9.20776 12.2139 9.20776ZM2.4268 25.3178C2.71007 24.8909 3.09249 24.3074 3.50324 23.61C7.66737 27.9506 10.6134 33.6575 11.2083 34.7675V38.852C9.09791 34.5114 5.7836 28.3634 2.4268 25.3178ZM11.1941 16.3662C9.77777 17.3055 9.06958 19.1983 9.06958 20.9345C9.06958 22.6708 9.77777 24.6205 11.1941 25.574V30.6831C9.65029 28.1784 7.41242 24.6347 4.50886 21.7315C5.86858 19.0275 6.90253 15.3558 7.11499 11.2571H11.18V16.3662H11.1941Z" fill="#63718E"/>
<path d="M28.2472 24.8625C28.1906 24.7913 23.4032 18.0029 23.4032 10.2183C23.4032 9.64901 22.95 9.1936 22.3834 9.1936H16.2789C15.7123 9.1936 15.2591 9.64901 15.2591 10.2183V17.3767C15.2591 17.7752 15.3299 18.0171 15.684 18.1879C16.7321 18.7145 17.3837 19.7534 17.3837 20.9204C17.3837 22.0873 16.7321 23.1405 15.684 23.6528C15.3299 23.8236 15.2591 24.1367 15.2591 24.5352V43.9754C15.2591 44.4593 15.4432 44.8008 15.9248 44.9004C15.9956 44.9147 16.2081 45.0001 16.2789 45.0001C16.6755 45.0001 16.9021 44.687 17.0579 44.3027C17.1145 44.1604 23.0775 30.0143 28.0489 26.3426C28.2756 26.1718 28.4597 25.8587 28.488 25.5741C28.5305 25.2894 28.4172 25.0902 28.2472 24.8625ZM17.2987 25.5598C18.715 24.6206 19.4091 22.6708 19.4091 20.9204C19.4091 19.1841 18.715 17.2913 17.2987 16.352V11.2429H21.3778C21.5761 15.1139 22.4684 18.5864 23.7573 21.2477C20.9104 23.9944 18.8142 27.0541 17.3128 29.6443V25.5598H17.2987ZM17.2987 38.8663V34.7818C18.1202 33.0598 20.7405 27.1965 24.7346 23.1689C25.2445 24.0798 25.7261 24.8198 26.066 25.3179C22.7092 28.3634 19.3949 34.5114 17.2987 38.8663Z" fill="#63718E"/>
<path d="M6.10933 7.15844H22.3976C22.9641 7.15844 23.4174 6.70304 23.4174 6.13378V1.02467C23.4174 0.455408 22.9641 0 22.3976 0H6.10933C5.54278 0 5.08954 0.455408 5.08954 1.02467V6.13378C5.08954 6.70304 5.54278 7.15844 6.10933 7.15844ZM7.12911 2.04934H21.3778V5.12334H7.12911V2.04934Z" fill="#63718E"/>
<path d="M45.3418 16.1973H46.2383C47.0762 16.1973 47.7031 16.0332 48.1191 15.7051C48.5352 15.3711 48.7432 14.8877 48.7432 14.2549C48.7432 13.6162 48.5674 13.1445 48.2158 12.8398C47.8701 12.5352 47.3252 12.3828 46.5811 12.3828H45.3418V16.1973ZM51.4941 14.1582C51.4941 15.541 51.0605 16.5986 50.1934 17.3311C49.332 18.0635 48.1045 18.4297 46.5107 18.4297H45.3418V23H42.6172V10.1504H46.7217C48.2803 10.1504 49.4639 10.4873 50.2725 11.1611C51.0869 11.8291 51.4941 12.8281 51.4941 14.1582ZM59.9492 23L59.4307 21.6641H59.3604C58.9092 22.2324 58.4434 22.6279 57.9629 22.8506C57.4883 23.0674 56.8672 23.1758 56.0996 23.1758C55.1562 23.1758 54.4121 22.9062 53.8672 22.3672C53.3281 21.8281 53.0586 21.0605 53.0586 20.0645C53.0586 19.0215 53.4219 18.2539 54.1484 17.7617C54.8809 17.2637 55.9824 16.9883 57.4531 16.9355L59.1582 16.8828V16.4521C59.1582 15.4561 58.6484 14.958 57.6289 14.958C56.8438 14.958 55.9209 15.1953 54.8604 15.6699L53.9727 13.8594C55.1035 13.2676 56.3574 12.9717 57.7344 12.9717C59.0527 12.9717 60.0635 13.2588 60.7666 13.833C61.4697 14.4072 61.8213 15.2803 61.8213 16.4521V23H59.9492ZM59.1582 18.4473L58.1211 18.4824C57.3418 18.5059 56.7617 18.6465 56.3809 18.9043C56 19.1621 55.8096 19.5547 55.8096 20.082C55.8096 20.8379 56.2432 21.2158 57.1104 21.2158C57.7314 21.2158 58.2266 21.0371 58.5957 20.6797C58.9707 20.3223 59.1582 19.8477 59.1582 19.2559V18.4473ZM69.9863 23.1758C68.832 23.1758 67.9268 22.7568 67.2705 21.9189H67.1299C67.2236 22.7393 67.2705 23.2139 67.2705 23.3428V27.3242H64.5898V13.1738H66.7695L67.1475 14.4482H67.2705C67.8975 13.4756 68.8262 12.9893 70.0566 12.9893C71.2168 12.9893 72.125 13.4375 72.7812 14.334C73.4375 15.2305 73.7656 16.4756 73.7656 18.0693C73.7656 19.1182 73.6104 20.0293 73.2998 20.8027C72.9951 21.5762 72.5586 22.165 71.9902 22.5693C71.4219 22.9736 70.7539 23.1758 69.9863 23.1758ZM69.1953 15.1338C68.5332 15.1338 68.0498 15.3389 67.7451 15.749C67.4404 16.1533 67.2822 16.8242 67.2705 17.7617V18.0518C67.2705 19.1064 67.4258 19.8623 67.7363 20.3193C68.0527 20.7764 68.5508 21.0049 69.2305 21.0049C70.4316 21.0049 71.0322 20.0146 71.0322 18.0342C71.0322 17.0674 70.8828 16.3438 70.584 15.8633C70.291 15.377 69.8281 15.1338 69.1953 15.1338ZM75.8662 10.6338C75.8662 9.76074 76.3525 9.32422 77.3252 9.32422C78.2979 9.32422 78.7842 9.76074 78.7842 10.6338C78.7842 11.0498 78.6611 11.375 78.415 11.6094C78.1748 11.8379 77.8115 11.9521 77.3252 11.9521C76.3525 11.9521 75.8662 11.5127 75.8662 10.6338ZM78.6611 23H75.9805V13.1738H78.6611V23ZM85.5518 14.8965C84.9834 14.8965 84.5381 15.0781 84.2158 15.4414C83.8936 15.7988 83.709 16.3086 83.6621 16.9707H87.4238C87.4121 16.3086 87.2393 15.7988 86.9053 15.4414C86.5713 15.0781 86.1201 14.8965 85.5518 14.8965ZM85.9297 23.1758C84.3477 23.1758 83.1113 22.7393 82.2207 21.8662C81.3301 20.9932 80.8848 19.7568 80.8848 18.1572C80.8848 16.5107 81.2949 15.2393 82.1152 14.3428C82.9414 13.4404 84.0811 12.9893 85.5342 12.9893C86.9229 12.9893 88.0039 13.3848 88.7773 14.1758C89.5508 14.9668 89.9375 16.0596 89.9375 17.4541V18.7549H83.6006C83.6299 19.5166 83.8555 20.1113 84.2773 20.5391C84.6992 20.9668 85.291 21.1807 86.0527 21.1807C86.6445 21.1807 87.2041 21.1191 87.7314 20.9961C88.2588 20.873 88.8096 20.6768 89.3838 20.4072V22.4814C88.915 22.7158 88.4141 22.8887 87.8809 23C87.3477 23.1172 86.6973 23.1758 85.9297 23.1758ZM97.6016 12.9893C97.9648 12.9893 98.2666 13.0156 98.5068 13.0684L98.3047 15.582C98.0879 15.5234 97.8242 15.4941 97.5137 15.4941C96.6582 15.4941 95.9902 15.7139 95.5098 16.1533C95.0352 16.5928 94.7979 17.208 94.7979 17.999V23H92.1172V13.1738H94.1475L94.543 14.8262H94.6748C94.9795 14.2754 95.3896 13.833 95.9053 13.499C96.4268 13.1592 96.9922 12.9893 97.6016 12.9893Z" fill="#423D59"/>
<path d="M47.8848 35.5684C47.8848 36.4082 47.5918 37.0479 47.0059 37.4873C46.4248 37.9268 45.5532 38.1465 44.3911 38.1465C43.7954 38.1465 43.2876 38.105 42.8677 38.022C42.4478 37.9438 42.0547 37.8267 41.6885 37.6704V35.8247C42.1035 36.02 42.5698 36.1836 43.0874 36.3154C43.6099 36.4473 44.0688 36.5132 44.4644 36.5132C45.2749 36.5132 45.6802 36.2788 45.6802 35.8101C45.6802 35.6343 45.6265 35.4927 45.519 35.3853C45.4116 35.2729 45.2261 35.1484 44.9624 35.0117C44.6987 34.8701 44.3472 34.7065 43.9077 34.521C43.2778 34.2573 42.814 34.0132 42.5161 33.7886C42.2231 33.564 42.0083 33.3076 41.8716 33.0195C41.7397 32.7266 41.6738 32.3677 41.6738 31.9429C41.6738 31.2153 41.9546 30.6538 42.5161 30.2583C43.0825 29.8579 43.8833 29.6577 44.9185 29.6577C45.9048 29.6577 46.8643 29.8726 47.7969 30.3022L47.123 31.9136C46.7129 31.7378 46.3296 31.5938 45.9731 31.4814C45.6167 31.3691 45.2529 31.313 44.8818 31.313C44.2227 31.313 43.8931 31.4912 43.8931 31.8477C43.8931 32.0479 43.998 32.2212 44.208 32.3677C44.4229 32.5142 44.8892 32.7314 45.6069 33.0195C46.2466 33.2783 46.7153 33.52 47.0132 33.7446C47.311 33.9692 47.5308 34.228 47.6724 34.521C47.814 34.814 47.8848 35.1631 47.8848 35.5684ZM52.9531 38.1465C50.4043 38.1465 49.1299 36.7476 49.1299 33.9497C49.1299 32.5581 49.4766 31.4961 50.1699 30.7637C50.8633 30.0264 51.8569 29.6577 53.1509 29.6577C54.0981 29.6577 54.9478 29.8433 55.6997 30.2144L55.0405 31.9429C54.689 31.8013 54.3618 31.6865 54.0591 31.5986C53.7563 31.5059 53.4536 31.4595 53.1509 31.4595C51.9888 31.4595 51.4077 32.2847 51.4077 33.9351C51.4077 35.5366 51.9888 36.3374 53.1509 36.3374C53.5806 36.3374 53.9785 36.2812 54.3447 36.1689C54.7109 36.0518 55.0771 35.8711 55.4434 35.627V37.5386C55.082 37.7681 54.7158 37.9268 54.3447 38.0146C53.9785 38.1025 53.5146 38.1465 52.9531 38.1465ZM64.9062 38H62.6724V33.2173C62.6724 32.0356 62.2329 31.4448 61.354 31.4448C60.729 31.4448 60.2773 31.6572 59.999 32.082C59.7207 32.5068 59.5815 33.1953 59.5815 34.1475V38H57.3477V26.6035H59.5815V28.9253C59.5815 29.106 59.5645 29.5308 59.5303 30.1997L59.479 30.8589H59.5962C60.0942 30.0581 60.8853 29.6577 61.9692 29.6577C62.9312 29.6577 63.6611 29.9165 64.1592 30.4341C64.6572 30.9517 64.9062 31.6938 64.9062 32.6606V38ZM71.7764 29.6577C72.0791 29.6577 72.3306 29.6797 72.5308 29.7236L72.3623 31.8184C72.1816 31.7695 71.9619 31.7451 71.7031 31.7451C70.9902 31.7451 70.4336 31.9282 70.0332 32.2944C69.6377 32.6606 69.4399 33.1733 69.4399 33.8325V38H67.2061V29.8115H68.8979L69.2275 31.1885H69.3374C69.5913 30.7295 69.9331 30.3608 70.3628 30.0825C70.7974 29.7993 71.2686 29.6577 71.7764 29.6577ZM77.4087 31.2471C76.9351 31.2471 76.564 31.3984 76.2954 31.7012C76.0269 31.999 75.873 32.4238 75.834 32.9756H78.9688C78.959 32.4238 78.8149 31.999 78.5366 31.7012C78.2583 31.3984 77.8823 31.2471 77.4087 31.2471ZM77.7236 38.1465C76.4053 38.1465 75.375 37.7827 74.6328 37.0552C73.8906 36.3276 73.5195 35.2974 73.5195 33.9644C73.5195 32.5923 73.8613 31.5327 74.5449 30.7856C75.2334 30.0337 76.1831 29.6577 77.394 29.6577C78.5513 29.6577 79.4521 29.9873 80.0967 30.6465C80.7412 31.3057 81.0635 32.2163 81.0635 33.3784V34.4624H75.7827C75.8071 35.0972 75.9951 35.5928 76.3467 35.9492C76.6982 36.3057 77.1914 36.4839 77.8262 36.4839C78.3193 36.4839 78.7856 36.4326 79.2251 36.3301C79.6646 36.2275 80.1235 36.064 80.6021 35.8394V37.5679C80.2114 37.7632 79.7939 37.9072 79.3496 38C78.9053 38.0977 78.3633 38.1465 77.7236 38.1465ZM82.7847 27.6948C82.7847 26.9673 83.1899 26.6035 84.0005 26.6035C84.811 26.6035 85.2163 26.9673 85.2163 27.6948C85.2163 28.0415 85.1138 28.3125 84.9087 28.5078C84.7085 28.6982 84.4058 28.7935 84.0005 28.7935C83.1899 28.7935 82.7847 28.4272 82.7847 27.6948ZM85.1138 38H82.8799V29.8115H85.1138V38ZM92.0205 29.6577C92.9873 29.6577 93.7441 30.0361 94.291 30.793C94.8379 31.5449 95.1113 32.5776 95.1113 33.8911C95.1113 35.2437 94.8281 36.291 94.2617 37.0332C93.7002 37.7754 92.9336 38.1465 91.9619 38.1465C91 38.1465 90.2456 37.7974 89.6987 37.0991H89.5449L89.1714 38H87.4648V26.6035H89.6987V29.2549C89.6987 29.5918 89.6694 30.1313 89.6108 30.8735H89.6987C90.2212 30.063 90.9951 29.6577 92.0205 29.6577ZM91.3027 31.4448C90.751 31.4448 90.3481 31.6157 90.0942 31.9575C89.8403 32.2944 89.7085 32.8535 89.6987 33.6348V33.8765C89.6987 34.7554 89.8281 35.3853 90.0869 35.7661C90.3506 36.147 90.7656 36.3374 91.332 36.3374C91.791 36.3374 92.1548 36.1274 92.4233 35.7075C92.6968 35.2827 92.8335 34.6675 92.8335 33.8618C92.8335 33.0562 92.6968 32.4531 92.4233 32.0527C92.1499 31.6475 91.7764 31.4448 91.3027 31.4448ZM100.348 31.2471C99.8745 31.2471 99.5034 31.3984 99.2349 31.7012C98.9663 31.999 98.8125 32.4238 98.7734 32.9756H101.908C101.898 32.4238 101.754 31.999 101.476 31.7012C101.198 31.3984 100.822 31.2471 100.348 31.2471ZM100.663 38.1465C99.3447 38.1465 98.3145 37.7827 97.5723 37.0552C96.8301 36.3276 96.459 35.2974 96.459 33.9644C96.459 32.5923 96.8008 31.5327 97.4844 30.7856C98.1729 30.0337 99.1226 29.6577 100.333 29.6577C101.491 29.6577 102.392 29.9873 103.036 30.6465C103.681 31.3057 104.003 32.2163 104.003 33.3784V34.4624H98.7222C98.7466 35.0972 98.9346 35.5928 99.2861 35.9492C99.6377 36.3057 100.131 36.4839 100.766 36.4839C101.259 36.4839 101.725 36.4326 102.165 36.3301C102.604 36.2275 103.063 36.064 103.542 35.8394V37.5679C103.151 37.7632 102.733 37.9072 102.289 38C101.845 38.0977 101.303 38.1465 100.663 38.1465ZM113.378 38H111.144V33.2173C111.144 32.6265 111.039 32.1846 110.829 31.8916C110.619 31.5938 110.285 31.4448 109.826 31.4448C109.201 31.4448 108.749 31.6548 108.471 32.0747C108.192 32.4897 108.053 33.1807 108.053 34.1475V38H105.819V29.8115H107.526L107.826 30.8589H107.951C108.2 30.4634 108.542 30.1655 108.976 29.9653C109.416 29.7603 109.914 29.6577 110.47 29.6577C111.422 29.6577 112.145 29.9165 112.638 30.4341C113.131 30.9468 113.378 31.689 113.378 32.6606V38Z" fill="#63718E"/>
</svg>
